<?xml version="1.0" encoding="utf-8"?>
<!-- Generator: Adobe Illustrator 16.0.0, SVG Export Plug-In . SVG Version: 6.00 Build 0)  -->
<!DOCTYPE svg PUBLIC "-//W3C//DTD SVG 1.1//EN" "http://www.w3.org/Graphics/SVG/1.1/DTD/svg11.dtd">
<svg version="1.1" id="Layer_1" xmlns="http://www.w3.org/2000/svg" xmlns:xlink="http://www.w3.org/1999/xlink" x="0px" y="0px"
	 width="587.798px" height="229.073px" viewBox="132.444 138.443 587.798 229.073"
	 enable-background="new 132.444 138.443 587.798 229.073" xml:space="preserve">
<rect x="132.444" y="138.443" width="64.327" height="56.852"/>
<polygon points="196.771,195.295 196.771,367.516 256.806,367.516 256.806,195.295 321.128,195.295 321.128,138.443 
	256.806,138.443 "/>
<g>
	<g>
		<defs>
			<rect id="SVGID_1_" width="859.484" height="515.387"/>
		</defs>
		<clipPath id="SVGID_2_">
			<use xlink:href="#SVGID_1_"  overflow="visible"/>
		</clipPath>
		<path clip-path="url(#SVGID_2_)" d="M352.503,195.295h-0.06v57.691c0,63.256,52.216,114.53,116.631,114.53h48.007v-56.845h-39.65
			c-35.812,0-62.505-29.138-62.505-64.957v-50.419h102.155v-56.852H412.535L352.503,195.295z"/>
	</g>
	<g>
		<defs>
			<rect id="SVGID_3_" width="859.484" height="515.387"/>
		</defs>
		<clipPath id="SVGID_4_">
			<use xlink:href="#SVGID_3_"  overflow="visible"/>
		</clipPath>
		<polygon clip-path="url(#SVGID_4_)" points="720.072,195.295 720.072,138.443 557.493,138.443 557.493,231.912 617.526,231.912 
			617.526,195.295 		"/>
	</g>
	<g>
		<defs>
			<rect id="SVGID_5_" width="859.484" height="515.387"/>
		</defs>
		<clipPath id="SVGID_6_">
			<use xlink:href="#SVGID_5_"  overflow="visible"/>
		</clipPath>
		<polygon clip-path="url(#SVGID_6_)" points="557.494,367.516 617.526,367.516 617.526,288.764 682.091,288.764 682.091,231.912 
			617.526,231.912 557.494,288.764 		"/>
	</g>
</g>
</svg>
